<?xml version="1.0" encoding="UTF-8" standalone="no"?>
<svg width="128" height="128" viewBox="0 0 128 128" xmlns="http://www.w3.org/2000/svg">
  <!-- Фон -->
  <rect width="128" height="128" rx="16" fill="#2a2d38"/>
  
  <!-- Внутренняя тень -->
  <rect x="10" y="10" width="108" height="108" rx="10" fill="#1e2127" opacity="0.6"/>
  
  <!-- Файл с угловым сгибом -->
  <path d="M24 20 L84 20 L104 40 L104 108 L24 108 Z" fill="#303540" stroke="#5e81ac" stroke-width="2"/>
  <path d="M84 20 L84 40 L104 40" fill="none" stroke="#5e81ac" stroke-width="2"/>
  
  <!-- Стилизованные линии кода -->
  <path d="M34 58 L94 58" stroke="#88c0d0" stroke-width="3" stroke-linecap="round"/>
  <path d="M34 72 L84 72" stroke="#8fbcbb" stroke-width="3" stroke-linecap="round"/>
  <path d="M34 86 L74 86" stroke="#a3be8c" stroke-width="3" stroke-linecap="round"/>
  
  <!-- Левая фигурная скобка -->
  <path d="M44 40 C39 40, 39 50, 39 55 L39 73 C39 78, 39 88, 44 88" 
        stroke="#bf616a" stroke-width="4" fill="none" stroke-linecap="round"/>
  
  <!-- Правая фигурная скобка -->
  <path d="M84 40 C89 40, 89 50, 89 55 L89 73 C89 78, 89 88, 84 88" 
        stroke="#ebcb8b" stroke-width="4" fill="none" stroke-linecap="round"/>
</svg> 